<mxfile host="app.diagrams.net" modified="2020-07-27T10:35:33.315Z" agent="5.0 (X11; Linux x86_64) AppleWebKit/537.36 (KHTML, like Gecko) Chrome/84.0.4147.89 Safari/537.36" etag="Nm94GQRJd6noQuE7xRku" version="13.5.3" type="github">
  <diagram id="zhktbUTJ-xe0_NIlt0AP" name="Page-1">
    <mxGraphModel dx="1358" dy="774" grid="1" gridSize="10" guides="1" tooltips="1" connect="1" arrows="1" fold="1" page="1" pageScale="1" pageWidth="850" pageHeight="1100" math="0" shadow="0">
      <root>
        <mxCell id="0" />
        <mxCell id="1" parent="0" />
        <mxCell id="rtASI6w7ON3c2O2H3D7b-29" style="edgeStyle=orthogonalEdgeStyle;rounded=0;orthogonalLoop=1;jettySize=auto;html=1;exitX=0.5;exitY=1;exitDx=0;exitDy=0;entryX=0.5;entryY=0;entryDx=0;entryDy=0;fontSize=12;" edge="1" parent="1" source="fQDFI9WNEDM8acq_0uCt-1" target="TkK533PQzBmlbEGzrgbe-3">
          <mxGeometry relative="1" as="geometry" />
        </mxCell>
        <mxCell id="fQDFI9WNEDM8acq_0uCt-1" value="Patient&lt;br&gt;Walks In" style="ellipse;whiteSpace=wrap;html=1;" parent="1" vertex="1">
          <mxGeometry x="460" y="10" width="60" height="40" as="geometry" />
        </mxCell>
        <mxCell id="rtASI6w7ON3c2O2H3D7b-14" style="edgeStyle=orthogonalEdgeStyle;rounded=0;orthogonalLoop=1;jettySize=auto;html=1;exitX=1;exitY=0.5;exitDx=0;exitDy=0;entryX=0.5;entryY=0;entryDx=0;entryDy=0;fontSize=12;" edge="1" parent="1" source="fQDFI9WNEDM8acq_0uCt-5" target="TkK533PQzBmlbEGzrgbe-5">
          <mxGeometry relative="1" as="geometry" />
        </mxCell>
        <mxCell id="rtASI6w7ON3c2O2H3D7b-15" value="No" style="edgeLabel;html=1;align=center;verticalAlign=middle;resizable=0;points=[];fontSize=12;" vertex="1" connectable="0" parent="rtASI6w7ON3c2O2H3D7b-14">
          <mxGeometry x="-0.3469" y="-9" relative="1" as="geometry">
            <mxPoint x="-4" y="-19" as="offset" />
          </mxGeometry>
        </mxCell>
        <mxCell id="rtASI6w7ON3c2O2H3D7b-51" style="edgeStyle=orthogonalEdgeStyle;rounded=0;orthogonalLoop=1;jettySize=auto;html=1;exitX=0;exitY=0.5;exitDx=0;exitDy=0;fontSize=12;" edge="1" parent="1" source="fQDFI9WNEDM8acq_0uCt-5">
          <mxGeometry relative="1" as="geometry">
            <mxPoint x="140" y="341" as="targetPoint" />
          </mxGeometry>
        </mxCell>
        <mxCell id="fQDFI9WNEDM8acq_0uCt-5" value="&lt;br&gt;Is Existing Patient ?&lt;br&gt;&lt;font style=&quot;font-size: 10px&quot;&gt;(Search by Adhaar,Mobile,&lt;br&gt;Name, PID)&lt;/font&gt;" style="rhombus;whiteSpace=wrap;html=1;" parent="1" vertex="1">
          <mxGeometry x="170" y="246.5" width="160" height="70" as="geometry" />
        </mxCell>
        <mxCell id="fQDFI9WNEDM8acq_0uCt-14" style="edgeStyle=orthogonalEdgeStyle;rounded=0;orthogonalLoop=1;jettySize=auto;html=1;entryX=1;entryY=0.5;entryDx=0;entryDy=0;fontSize=12;exitX=0;exitY=0.5;exitDx=0;exitDy=0;" parent="1" edge="1" target="TkK533PQzBmlbEGzrgbe-4" source="TkK533PQzBmlbEGzrgbe-5">
          <mxGeometry relative="1" as="geometry">
            <mxPoint x="600" y="419" as="sourcePoint" />
            <mxPoint x="330" y="419" as="targetPoint" />
          </mxGeometry>
        </mxCell>
        <mxCell id="rtASI6w7ON3c2O2H3D7b-2" value="" style="edgeStyle=orthogonalEdgeStyle;rounded=0;orthogonalLoop=1;jettySize=auto;html=1;fontSize=12;exitX=0.517;exitY=0.85;exitDx=0;exitDy=0;exitPerimeter=0;entryX=0.5;entryY=0;entryDx=0;entryDy=0;" edge="1" parent="1" source="TkK533PQzBmlbEGzrgbe-1" target="rtASI6w7ON3c2O2H3D7b-1">
          <mxGeometry relative="1" as="geometry" />
        </mxCell>
        <mxCell id="TkK533PQzBmlbEGzrgbe-1" value="OPD Invoice" style="shape=document;whiteSpace=wrap;html=1;boundedLbl=1;fontSize=12;" parent="1" vertex="1">
          <mxGeometry x="80" y="394" width="120" height="40" as="geometry" />
        </mxCell>
        <mxCell id="rtASI6w7ON3c2O2H3D7b-28" value="No" style="edgeStyle=orthogonalEdgeStyle;rounded=0;orthogonalLoop=1;jettySize=auto;html=1;exitX=0;exitY=0.5;exitDx=0;exitDy=0;entryX=0.5;entryY=0;entryDx=0;entryDy=0;fontSize=12;" edge="1" parent="1" source="rtASI6w7ON3c2O2H3D7b-52" target="rtASI6w7ON3c2O2H3D7b-11">
          <mxGeometry x="-0.3939" y="-12" relative="1" as="geometry">
            <mxPoint as="offset" />
          </mxGeometry>
        </mxCell>
        <mxCell id="rtASI6w7ON3c2O2H3D7b-53" style="edgeStyle=orthogonalEdgeStyle;rounded=0;orthogonalLoop=1;jettySize=auto;html=1;exitX=0.5;exitY=1;exitDx=0;exitDy=0;entryX=0.5;entryY=0;entryDx=0;entryDy=0;fontSize=12;" edge="1" parent="1" source="TkK533PQzBmlbEGzrgbe-3" target="rtASI6w7ON3c2O2H3D7b-52">
          <mxGeometry relative="1" as="geometry" />
        </mxCell>
        <mxCell id="TkK533PQzBmlbEGzrgbe-3" value="&lt;span&gt;Registration Counter&lt;/span&gt;" style="rounded=1;whiteSpace=wrap;html=1;fontSize=12;" parent="1" vertex="1">
          <mxGeometry x="430" y="80" width="120" height="30" as="geometry" />
        </mxCell>
        <mxCell id="rtASI6w7ON3c2O2H3D7b-59" style="edgeStyle=orthogonalEdgeStyle;rounded=0;orthogonalLoop=1;jettySize=auto;html=1;exitX=0.5;exitY=1;exitDx=0;exitDy=0;entryX=0.5;entryY=0;entryDx=0;entryDy=0;fontSize=12;" edge="1" parent="1" source="TkK533PQzBmlbEGzrgbe-4" target="TkK533PQzBmlbEGzrgbe-1">
          <mxGeometry relative="1" as="geometry" />
        </mxCell>
        <mxCell id="TkK533PQzBmlbEGzrgbe-4" value="Create Patient Encounter" style="rounded=1;whiteSpace=wrap;html=1;fontSize=12;" parent="1" vertex="1">
          <mxGeometry x="80" y="338.5" width="120" height="30" as="geometry" />
        </mxCell>
        <mxCell id="TkK533PQzBmlbEGzrgbe-5" value="Register New Patient&lt;br&gt;(PID created with other details)" style="rounded=1;whiteSpace=wrap;html=1;fontSize=12;" parent="1" vertex="1">
          <mxGeometry x="290" y="331" width="120" height="45" as="geometry" />
        </mxCell>
        <mxCell id="rtASI6w7ON3c2O2H3D7b-7" style="edgeStyle=orthogonalEdgeStyle;rounded=0;orthogonalLoop=1;jettySize=auto;html=1;exitX=0.5;exitY=1;exitDx=0;exitDy=0;entryX=0.5;entryY=0;entryDx=0;entryDy=0;fontSize=12;" edge="1" parent="1" source="rtASI6w7ON3c2O2H3D7b-1" target="rtASI6w7ON3c2O2H3D7b-6">
          <mxGeometry relative="1" as="geometry" />
        </mxCell>
        <mxCell id="rtASI6w7ON3c2O2H3D7b-1" value="Doctor Consultation" style="rounded=1;whiteSpace=wrap;html=1;fontSize=12;" vertex="1" parent="1">
          <mxGeometry x="80" y="458.5" width="120" height="40" as="geometry" />
        </mxCell>
        <mxCell id="rtASI6w7ON3c2O2H3D7b-3" value="Patient Exit" style="ellipse;whiteSpace=wrap;html=1;fontSize=12;" vertex="1" parent="1">
          <mxGeometry x="285" y="630" width="70" height="38" as="geometry" />
        </mxCell>
        <mxCell id="rtASI6w7ON3c2O2H3D7b-17" value="" style="edgeStyle=orthogonalEdgeStyle;rounded=0;orthogonalLoop=1;jettySize=auto;html=1;fontSize=12;" edge="1" parent="1" source="rtASI6w7ON3c2O2H3D7b-4" target="rtASI6w7ON3c2O2H3D7b-3">
          <mxGeometry relative="1" as="geometry" />
        </mxCell>
        <mxCell id="rtASI6w7ON3c2O2H3D7b-4" value="Goto Pharmacy with prescription" style="rounded=1;whiteSpace=wrap;html=1;fontSize=12;" vertex="1" parent="1">
          <mxGeometry x="260" y="580" width="120" height="30" as="geometry" />
        </mxCell>
        <mxCell id="rtASI6w7ON3c2O2H3D7b-8" style="edgeStyle=orthogonalEdgeStyle;rounded=0;orthogonalLoop=1;jettySize=auto;html=1;entryX=0.5;entryY=0;entryDx=0;entryDy=0;fontSize=12;" edge="1" parent="1" source="rtASI6w7ON3c2O2H3D7b-6" target="rtASI6w7ON3c2O2H3D7b-4">
          <mxGeometry relative="1" as="geometry">
            <mxPoint x="400" y="667" as="targetPoint" />
          </mxGeometry>
        </mxCell>
        <mxCell id="rtASI6w7ON3c2O2H3D7b-18" value="No" style="edgeLabel;html=1;align=center;verticalAlign=middle;resizable=0;points=[];fontSize=12;" vertex="1" connectable="0" parent="rtASI6w7ON3c2O2H3D7b-8">
          <mxGeometry x="-0.6545" relative="1" as="geometry">
            <mxPoint x="4" y="-11" as="offset" />
          </mxGeometry>
        </mxCell>
        <mxCell id="rtASI6w7ON3c2O2H3D7b-16" style="edgeStyle=orthogonalEdgeStyle;rounded=0;orthogonalLoop=1;jettySize=auto;html=1;exitX=0;exitY=0.5;exitDx=0;exitDy=0;entryX=0;entryY=0.5;entryDx=0;entryDy=0;fontSize=12;" edge="1" parent="1" source="rtASI6w7ON3c2O2H3D7b-6" target="TkK533PQzBmlbEGzrgbe-3">
          <mxGeometry relative="1" as="geometry">
            <Array as="points">
              <mxPoint x="50" y="560" />
              <mxPoint x="50" y="95" />
            </Array>
          </mxGeometry>
        </mxCell>
        <mxCell id="rtASI6w7ON3c2O2H3D7b-19" value="Yes" style="edgeLabel;html=1;align=center;verticalAlign=middle;resizable=0;points=[];fontSize=12;" vertex="1" connectable="0" parent="rtASI6w7ON3c2O2H3D7b-16">
          <mxGeometry x="-0.9169" y="1" relative="1" as="geometry">
            <mxPoint x="13" y="0.5" as="offset" />
          </mxGeometry>
        </mxCell>
        <mxCell id="rtASI6w7ON3c2O2H3D7b-6" value="Admission &lt;br&gt;Ordered ?" style="rhombus;whiteSpace=wrap;html=1;" vertex="1" parent="1">
          <mxGeometry x="75" y="530" width="130" height="60" as="geometry" />
        </mxCell>
        <mxCell id="rtASI6w7ON3c2O2H3D7b-12" style="edgeStyle=orthogonalEdgeStyle;rounded=0;orthogonalLoop=1;jettySize=auto;html=1;exitX=0;exitY=0.5;exitDx=0;exitDy=0;entryX=0.5;entryY=0;entryDx=0;entryDy=0;fontSize=12;" edge="1" parent="1" source="rtASI6w7ON3c2O2H3D7b-11" target="fQDFI9WNEDM8acq_0uCt-5">
          <mxGeometry relative="1" as="geometry">
            <mxPoint x="290" y="221" as="sourcePoint" />
          </mxGeometry>
        </mxCell>
        <mxCell id="rtASI6w7ON3c2O2H3D7b-13" value="No" style="edgeLabel;html=1;align=center;verticalAlign=middle;resizable=0;points=[];fontSize=12;" vertex="1" connectable="0" parent="rtASI6w7ON3c2O2H3D7b-12">
          <mxGeometry x="-0.6751" y="2" relative="1" as="geometry">
            <mxPoint x="-6" y="-12.5" as="offset" />
          </mxGeometry>
        </mxCell>
        <mxCell id="rtASI6w7ON3c2O2H3D7b-22" style="edgeStyle=orthogonalEdgeStyle;rounded=0;orthogonalLoop=1;jettySize=auto;html=1;entryX=0.5;entryY=0;entryDx=0;entryDy=0;fontSize=12;exitX=1;exitY=0.5;exitDx=0;exitDy=0;" edge="1" parent="1" source="rtASI6w7ON3c2O2H3D7b-11" target="rtASI6w7ON3c2O2H3D7b-20">
          <mxGeometry relative="1" as="geometry">
            <mxPoint x="450" y="221" as="sourcePoint" />
          </mxGeometry>
        </mxCell>
        <mxCell id="rtASI6w7ON3c2O2H3D7b-25" value="Yes" style="edgeLabel;html=1;align=center;verticalAlign=middle;resizable=0;points=[];fontSize=12;" vertex="1" connectable="0" parent="rtASI6w7ON3c2O2H3D7b-22">
          <mxGeometry x="-0.4346" y="1" relative="1" as="geometry">
            <mxPoint x="-7" y="-9" as="offset" />
          </mxGeometry>
        </mxCell>
        <mxCell id="rtASI6w7ON3c2O2H3D7b-11" value="Admission Order?&lt;br&gt;&lt;font style=&quot;font-size: 10px&quot;&gt;(Ward Details Ex: ICU etc)&lt;/font&gt;" style="rhombus;whiteSpace=wrap;html=1;" vertex="1" parent="1">
          <mxGeometry x="290" y="188.5" width="160" height="65" as="geometry" />
        </mxCell>
        <mxCell id="rtASI6w7ON3c2O2H3D7b-23" style="edgeStyle=orthogonalEdgeStyle;rounded=0;orthogonalLoop=1;jettySize=auto;html=1;exitX=0.5;exitY=1;exitDx=0;exitDy=0;entryX=0.5;entryY=0;entryDx=0;entryDy=0;fontSize=12;" edge="1" parent="1" source="rtASI6w7ON3c2O2H3D7b-20" target="rtASI6w7ON3c2O2H3D7b-21">
          <mxGeometry relative="1" as="geometry" />
        </mxCell>
        <mxCell id="rtASI6w7ON3c2O2H3D7b-20" value="Schedule Admission from Patient Encounter" style="rounded=1;whiteSpace=wrap;html=1;fontSize=12;" vertex="1" parent="1">
          <mxGeometry x="450" y="253.5" width="130" height="35" as="geometry" />
        </mxCell>
        <mxCell id="rtASI6w7ON3c2O2H3D7b-21" value="Admit from InPatient Record" style="rounded=1;whiteSpace=wrap;html=1;fontSize=12;" vertex="1" parent="1">
          <mxGeometry x="450" y="316.5" width="130" height="35" as="geometry" />
        </mxCell>
        <mxCell id="rtASI6w7ON3c2O2H3D7b-39" style="edgeStyle=orthogonalEdgeStyle;rounded=0;orthogonalLoop=1;jettySize=auto;html=1;exitX=0.5;exitY=1;exitDx=0;exitDy=0;entryX=0.5;entryY=0;entryDx=0;entryDy=0;fontSize=12;" edge="1" parent="1" source="rtASI6w7ON3c2O2H3D7b-30" target="rtASI6w7ON3c2O2H3D7b-32">
          <mxGeometry relative="1" as="geometry" />
        </mxCell>
        <mxCell id="rtASI6w7ON3c2O2H3D7b-30" value="Patient Admitted in respective ward" style="rounded=1;whiteSpace=wrap;html=1;fontSize=12;" vertex="1" parent="1">
          <mxGeometry x="450" y="440.5" width="130" height="35" as="geometry" />
        </mxCell>
        <mxCell id="rtASI6w7ON3c2O2H3D7b-35" style="edgeStyle=orthogonalEdgeStyle;rounded=0;orthogonalLoop=1;jettySize=auto;html=1;exitX=0;exitY=0.5;exitDx=0;exitDy=0;entryX=0;entryY=0.5;entryDx=0;entryDy=0;fontSize=12;" edge="1" parent="1" source="rtASI6w7ON3c2O2H3D7b-32" target="rtASI6w7ON3c2O2H3D7b-30">
          <mxGeometry relative="1" as="geometry">
            <Array as="points">
              <mxPoint x="400" y="528.5" />
              <mxPoint x="400" y="458.5" />
            </Array>
          </mxGeometry>
        </mxCell>
        <mxCell id="rtASI6w7ON3c2O2H3D7b-36" value="No" style="edgeLabel;html=1;align=center;verticalAlign=middle;resizable=0;points=[];fontSize=12;" vertex="1" connectable="0" parent="rtASI6w7ON3c2O2H3D7b-35">
          <mxGeometry x="-0.8475" y="2" relative="1" as="geometry">
            <mxPoint x="-10" y="-12" as="offset" />
          </mxGeometry>
        </mxCell>
        <mxCell id="rtASI6w7ON3c2O2H3D7b-56" value="Yes" style="edgeStyle=orthogonalEdgeStyle;rounded=0;orthogonalLoop=1;jettySize=auto;html=1;fontSize=12;exitX=1;exitY=0.5;exitDx=0;exitDy=0;" edge="1" parent="1" source="rtASI6w7ON3c2O2H3D7b-32" target="TkK533PQzBmlbEGzrgbe-3">
          <mxGeometry x="-0.9347" y="9" relative="1" as="geometry">
            <mxPoint x="730" y="610" as="sourcePoint" />
            <mxPoint x="550" y="96" as="targetPoint" />
            <Array as="points">
              <mxPoint x="620" y="529" />
              <mxPoint x="620" y="96" />
            </Array>
            <mxPoint y="1" as="offset" />
          </mxGeometry>
        </mxCell>
        <mxCell id="rtASI6w7ON3c2O2H3D7b-32" value="Discharge &lt;br&gt;Scheduled&amp;nbsp;?" style="rhombus;whiteSpace=wrap;html=1;" vertex="1" parent="1">
          <mxGeometry x="450" y="498.5" width="130" height="60" as="geometry" />
        </mxCell>
        <mxCell id="rtASI6w7ON3c2O2H3D7b-47" value="" style="edgeStyle=orthogonalEdgeStyle;rounded=0;orthogonalLoop=1;jettySize=auto;html=1;fontSize=12;exitX=0.508;exitY=0.863;exitDx=0;exitDy=0;exitPerimeter=0;entryX=0.5;entryY=0;entryDx=0;entryDy=0;" edge="1" parent="1" source="rtASI6w7ON3c2O2H3D7b-33" target="rtASI6w7ON3c2O2H3D7b-30">
          <mxGeometry relative="1" as="geometry" />
        </mxCell>
        <mxCell id="rtASI6w7ON3c2O2H3D7b-33" value="InPatient Record" style="shape=document;whiteSpace=wrap;html=1;boundedLbl=1;fontSize=12;" vertex="1" parent="1">
          <mxGeometry x="450" y="376" width="130" height="40" as="geometry" />
        </mxCell>
        <mxCell id="rtASI6w7ON3c2O2H3D7b-34" style="edgeStyle=orthogonalEdgeStyle;rounded=0;orthogonalLoop=1;jettySize=auto;html=1;exitX=0.5;exitY=1;exitDx=0;exitDy=0;entryX=0.5;entryY=0;entryDx=0;entryDy=0;fontSize=12;" edge="1" parent="1" source="rtASI6w7ON3c2O2H3D7b-21" target="rtASI6w7ON3c2O2H3D7b-33">
          <mxGeometry relative="1" as="geometry">
            <mxPoint x="515" y="353.5" as="sourcePoint" />
            <mxPoint x="515" y="473.5" as="targetPoint" />
          </mxGeometry>
        </mxCell>
        <mxCell id="rtASI6w7ON3c2O2H3D7b-42" style="edgeStyle=orthogonalEdgeStyle;rounded=0;orthogonalLoop=1;jettySize=auto;html=1;exitX=0.5;exitY=1;exitDx=0;exitDy=0;entryX=0.5;entryY=0;entryDx=0;entryDy=0;fontSize=12;" edge="1" parent="1" source="rtASI6w7ON3c2O2H3D7b-37" target="rtASI6w7ON3c2O2H3D7b-38">
          <mxGeometry relative="1" as="geometry" />
        </mxCell>
        <mxCell id="rtASI6w7ON3c2O2H3D7b-37" value="Final Billing from Billing sheet" style="rounded=1;whiteSpace=wrap;html=1;fontSize=12;" vertex="1" parent="1">
          <mxGeometry x="650" y="253.5" width="160" height="36.5" as="geometry" />
        </mxCell>
        <mxCell id="rtASI6w7ON3c2O2H3D7b-68" style="edgeStyle=orthogonalEdgeStyle;rounded=0;orthogonalLoop=1;jettySize=auto;html=1;entryX=0.5;entryY=0;entryDx=0;entryDy=0;fontSize=12;exitX=0.513;exitY=0.825;exitDx=0;exitDy=0;exitPerimeter=0;" edge="1" parent="1" source="rtASI6w7ON3c2O2H3D7b-38" target="rtASI6w7ON3c2O2H3D7b-44">
          <mxGeometry relative="1" as="geometry">
            <Array as="points">
              <mxPoint x="730" y="353" />
            </Array>
          </mxGeometry>
        </mxCell>
        <mxCell id="rtASI6w7ON3c2O2H3D7b-38" value="Final Invoice" style="shape=document;whiteSpace=wrap;html=1;boundedLbl=1;fontSize=12;" vertex="1" parent="1">
          <mxGeometry x="653.75" y="320" width="152.5" height="40" as="geometry" />
        </mxCell>
        <mxCell id="rtASI6w7ON3c2O2H3D7b-45" style="edgeStyle=orthogonalEdgeStyle;rounded=0;orthogonalLoop=1;jettySize=auto;html=1;exitX=0.5;exitY=1;exitDx=0;exitDy=0;entryX=0.5;entryY=0;entryDx=0;entryDy=0;fontSize=12;" edge="1" parent="1" source="rtASI6w7ON3c2O2H3D7b-43" target="rtASI6w7ON3c2O2H3D7b-37">
          <mxGeometry relative="1" as="geometry" />
        </mxCell>
        <mxCell id="rtASI6w7ON3c2O2H3D7b-43" value="&lt;span style=&quot;font-family: &amp;#34;arial&amp;#34; ; font-size: 13px ; text-align: left ; background-color: rgb(255 , 255 , 255)&quot;&gt;Create InPatient Encounter &amp;amp; Schedule Discharge&lt;/span&gt;" style="rounded=1;whiteSpace=wrap;html=1;fontSize=12;" vertex="1" parent="1">
          <mxGeometry x="650" y="188.5" width="160" height="40" as="geometry" />
        </mxCell>
        <mxCell id="rtASI6w7ON3c2O2H3D7b-69" style="edgeStyle=orthogonalEdgeStyle;rounded=0;orthogonalLoop=1;jettySize=auto;html=1;exitX=0.5;exitY=1;exitDx=0;exitDy=0;fontSize=12;" edge="1" parent="1" source="rtASI6w7ON3c2O2H3D7b-44" target="rtASI6w7ON3c2O2H3D7b-48">
          <mxGeometry relative="1" as="geometry" />
        </mxCell>
        <mxCell id="rtASI6w7ON3c2O2H3D7b-44" value="&lt;span style=&quot;font-family: &amp;#34;arial&amp;#34; ; font-size: 13px ; text-align: left ; background-color: rgb(255 , 255 , 255)&quot;&gt;Discharge from InPatient Record with Summary &lt;/span&gt;" style="rounded=1;whiteSpace=wrap;html=1;fontSize=12;" vertex="1" parent="1">
          <mxGeometry x="650" y="394" width="160" height="40" as="geometry" />
        </mxCell>
        <mxCell id="rtASI6w7ON3c2O2H3D7b-62" style="edgeStyle=orthogonalEdgeStyle;rounded=0;orthogonalLoop=1;jettySize=auto;html=1;fontSize=12;" edge="1" parent="1" source="rtASI6w7ON3c2O2H3D7b-48">
          <mxGeometry relative="1" as="geometry">
            <mxPoint x="355" y="649" as="targetPoint" />
            <Array as="points">
              <mxPoint x="730" y="649" />
            </Array>
          </mxGeometry>
        </mxCell>
        <mxCell id="rtASI6w7ON3c2O2H3D7b-48" value="Discharge Summary" style="shape=document;whiteSpace=wrap;html=1;boundedLbl=1;fontSize=12;" vertex="1" parent="1">
          <mxGeometry x="660" y="470" width="140" height="40" as="geometry" />
        </mxCell>
        <mxCell id="rtASI6w7ON3c2O2H3D7b-58" style="edgeStyle=orthogonalEdgeStyle;rounded=0;orthogonalLoop=1;jettySize=auto;html=1;exitX=1;exitY=0.5;exitDx=0;exitDy=0;entryX=0.5;entryY=0;entryDx=0;entryDy=0;fontSize=12;" edge="1" parent="1" source="rtASI6w7ON3c2O2H3D7b-52" target="rtASI6w7ON3c2O2H3D7b-43">
          <mxGeometry relative="1" as="geometry" />
        </mxCell>
        <mxCell id="rtASI6w7ON3c2O2H3D7b-63" value="Yes" style="edgeLabel;html=1;align=center;verticalAlign=middle;resizable=0;points=[];fontSize=12;" vertex="1" connectable="0" parent="rtASI6w7ON3c2O2H3D7b-58">
          <mxGeometry x="-0.6882" y="1" relative="1" as="geometry">
            <mxPoint x="-7" y="-10" as="offset" />
          </mxGeometry>
        </mxCell>
        <mxCell id="rtASI6w7ON3c2O2H3D7b-52" value="Discharge Order?&lt;br&gt;&lt;font style=&quot;font-size: 10px&quot;&gt;(IP Number)&lt;/font&gt;" style="rhombus;whiteSpace=wrap;html=1;" vertex="1" parent="1">
          <mxGeometry x="410" y="130" width="160" height="65" as="geometry" />
        </mxCell>
      </root>
    </mxGraphModel>
  </diagram>
</mxfile>
